<svg xmlns="http://www.w3.org/2000/svg" viewBox="0 -256 1792 1792">
  <path d="M1390.305 636.8305q0-27-18-45l-362-362-91-91q-18-18-45-18t-45 18l-91 91-362 362q-18 18-18 45t18 45l91 91q18 18 45 18t45-18l189-189v502q0 26 19 45t45 19h128q26 0 45-19t19-45v-502l189 189q19 19 45 19t45-19l91-91q18-18 18-45zm252 1q0 209-103 385.5t-279.5 279.5q-176.5 103-385.5 103t-385.5-103q-176.5-103-279.5-279.5t-103-385.5q0-209 103-385.5t279.5-279.5q176.5-103 385.5-103t385.5 103q176.5 103 279.5 279.5t103 385.5z" fill="currentColor"/>
</svg>
